<svg xmlns="http://www.w3.org/2000/svg" xmlns:xlink="http://www.w3.org/1999/xlink" width="1280" zoomAndPan="magnify" viewBox="0 0 960 599.999999" height="800" preserveAspectRatio="xMidYMid meet" version="1.0"><defs><filter x="0%" y="0%" width="100%" height="100%" id="d4d166f54c"><feColorMatrix values="0 0 0 0 1 0 0 0 0 1 0 0 0 0 1 0 0 0 1 0" color-interpolation-filters="sRGB"/></filter><mask id="ca273ac66f"><g filter="url(#d4d166f54c)"><rect x="-96" width="1152" fill="#000000" y="-60" height="719.999999" fill-opacity="0.46"/></g></mask><clipPath id="3fe0ded8e6"><path d="M 0.539062 1.050781 L 344.039062 1.050781 L 344.039062 384.300781 L 0.539062 384.300781 Z M 0.539062 1.050781 " clip-rule="nonzero"/></clipPath><clipPath id="ab769abdfb"><rect x="0" width="345" y="0" height="385"/></clipPath></defs><rect x="-96" width="1152" fill="#ffffff" y="-60" height="719.999999" fill-opacity="1"/><rect x="-96" width="1152" fill="#ffffff" y="-60" height="719.999999" fill-opacity="1"/><g mask="url(#ca273ac66f)"><g transform="matrix(1, 0, 0, 1, 269, 129)"><g clip-path="url(#ab769abdfb)"><g clip-path="url(#3fe0ded8e6)"><path fill="#b8b9bb" d="M 328.539062 302.742188 C 334.382812 294.429688 339.570312 285.636719 344.050781 276.425781 L 309.09375 276.425781 C 284.457031 307.300781 246.507812 327.085938 203.9375 327.085938 C 161.363281 327.085938 123.414062 307.300781 98.777344 276.425781 L 0.550781 276.425781 C 1.40625 278.503906 2.292969 280.5625 3.210938 282.605469 L 44.84375 310.09375 L 91.414062 283.207031 L 97.632812 293.980469 L 44.40625 324.707031 L 18.148438 307.375 C 34.625 329.386719 55.722656 347.734375 80.007812 360.984375 L 106.785156 365.4375 L 138.390625 321.933594 L 148.457031 329.246094 L 114.714844 375.6875 C 132.707031 381.277344 151.835938 384.292969 171.667969 384.292969 C 176.96875 384.292969 182.210938 384.066406 187.402344 383.648438 L 197.058594 338.207031 L 209.230469 340.792969 L 200.4375 382.140625 C 223.164062 378.71875 244.578125 371.304688 263.957031 360.636719 L 257.277344 329.207031 L 269.441406 326.625 L 275.246094 353.914062 C 292.492188 342.8125 307.839844 329.015625 320.699219 313.121094 L 308.625 296.5 L 318.6875 289.191406 Z M 98.710938 108.921875 C 123.347656 78 161.324219 58.179688 203.9375 58.179688 C 246.546875 58.179688 284.527344 78 309.160156 108.921875 L 344.050781 108.921875 C 336.277344 92.957031 326.363281 78.234375 314.664062 65.125 L 299.140625 79.101562 L 290.820312 69.855469 L 306.078125 56.117188 C 292.058594 42.3125 275.921875 30.648438 258.195312 21.664062 L 245.140625 50.984375 L 233.777344 45.929688 L 246.917969 16.40625 C 227.507812 8.105469 206.449219 2.929688 184.371094 1.484375 L 184.371094 47.269531 L 171.929688 47.269531 L 171.929688 1.058594 C 171.839844 1.058594 171.757812 1.054688 171.667969 1.054688 C 151.242188 1.054688 131.566406 4.265625 113.101562 10.183594 L 105.46875 19.464844 L 127.339844 68.585938 L 115.976562 73.648438 L 91.46875 18.605469 C 77.726562 24.949219 64.855469 32.863281 53.105469 42.128906 L 43.949219 75.277344 L 81.320312 108.921875 Z M 62.726562 108.921875 L 29.914062 79.378906 L 35.996094 57.355469 C 24.925781 68.449219 15.21875 80.898438 7.121094 94.425781 C 5.742188 97.183594 4.414062 99.96875 3.152344 102.792969 L 4.074219 108.921875 Z M 187.167969 298.503906 C 163.503906 298.503906 141.660156 290.738281 124.035156 277.617188 C 145.074219 297.648438 173.546875 309.945312 204.886719 309.945312 C 236.847656 309.945312 265.824219 297.160156 286.976562 276.425781 L 251.867188 276.425781 C 233.972656 290.261719 211.535156 298.503906 187.167969 298.503906 Z M 204.886719 75.402344 C 173.546875 75.402344 145.074219 87.699219 124.035156 107.730469 C 141.660156 94.609375 163.503906 86.84375 187.167969 86.84375 C 211.535156 86.84375 233.976562 95.082031 251.867188 108.921875 L 286.976562 108.921875 C 265.824219 88.1875 236.847656 75.402344 204.886719 75.402344 " fill-opacity="1" fill-rule="nonzero"/></g></g></g></g></svg>