<svg xmlns="http://www.w3.org/2000/svg" xmlns:xlink="http://www.w3.org/1999/xlink" width="1280" zoomAndPan="magnify" viewBox="0 0 960 599.999999" height="800" preserveAspectRatio="xMidYMid meet" version="1.0"><defs><filter x="0%" y="0%" width="100%" height="100%" id="83e2993039"><feColorMatrix values="0 0 0 0 1 0 0 0 0 1 0 0 0 0 1 0 0 0 1 0" color-interpolation-filters="sRGB"/></filter><mask id="68685c799d"><g filter="url(#83e2993039)"><rect x="-96" width="1152" fill="#000000" y="-60" height="719.999999" fill-opacity="0.09"/></g></mask><clipPath id="29ba0ac35c"><path d="M 0.820312 0.816406 L 294.820312 0.816406 L 294.820312 294.816406 L 0.820312 294.816406 Z M 0.820312 0.816406 " clip-rule="nonzero"/></clipPath><clipPath id="c056572152"><rect x="0" width="296" y="0" height="296"/></clipPath></defs><rect x="-96" width="1152" fill="#ffffff" y="-60" height="719.999999" fill-opacity="1"/><rect x="-96" width="1152" fill="#ffffff" y="-60" height="719.999999" fill-opacity="1"/><g mask="url(#68685c799d)"><g transform="matrix(1, 0, 0, 1, 508, 200)"><g clip-path="url(#c056572152)"><g clip-path="url(#29ba0ac35c)"><path fill="#000000" d="M 223.660156 119.683594 L 274.5625 78.351562 C 276 77.171875 278.105469 77.40625 279.285156 78.824219 C 279.777344 79.445312 280.035156 80.195312 280.035156 80.949219 L 280.035156 281.488281 C 280.035156 284.964844 278.621094 288.121094 276.324219 290.394531 C 274.046875 292.691406 270.894531 294.109375 267.417969 294.109375 L 234.820312 294.109375 C 231.34375 294.109375 228.1875 292.691406 225.890625 290.394531 C 223.617188 288.121094 222.203125 284.964844 222.203125 281.488281 L 222.203125 122.453125 C 222.203125 121.292969 222.78125 120.285156 223.660156 119.683594 Z M 244.585938 7.535156 C 242.71875 7.535156 241.214844 6.03125 241.214844 4.1875 C 241.214844 2.320312 242.71875 0.816406 244.585938 0.816406 L 291.195312 0.816406 C 293.0625 0.816406 294.5625 2.320312 294.5625 4.1875 L 294.5625 50.796875 C 294.5625 52.664062 293.0625 54.164062 291.195312 54.164062 C 289.347656 54.164062 287.847656 52.664062 287.847656 50.796875 L 287.847656 12.296875 L 200.675781 99.46875 C 199.367188 100.777344 197.242188 100.777344 195.914062 99.46875 L 167.371094 70.90625 L 105.4375 132.859375 C 104.109375 134.167969 101.984375 134.167969 100.675781 132.859375 L 72.5625 104.746094 L 6.574219 170.757812 C 5.242188 172.066406 3.117188 172.066406 1.808594 170.757812 C 0.5 169.449219 0.5 167.324219 1.808594 166.015625 L 70.203125 97.621094 C 71.511719 96.3125 73.636719 96.3125 74.945312 97.621094 L 103.054688 125.734375 L 164.988281 63.78125 C 166.320312 62.472656 168.445312 62.472656 169.753906 63.78125 L 198.296875 92.320312 L 283.082031 7.535156 Z M 273.320312 88.007812 L 228.917969 124.039062 L 228.917969 281.488281 C 228.917969 283.101562 229.582031 284.582031 230.65625 285.652344 C 231.730469 286.726562 233.210938 287.390625 234.820312 287.390625 L 267.417969 287.390625 C 269.027344 287.390625 270.507812 286.726562 271.582031 285.652344 C 272.652344 284.582031 273.320312 283.101562 273.320312 281.488281 Z M 16.636719 206.679688 L 67.625 164.40625 C 69.0625 163.226562 71.167969 163.441406 72.347656 164.855469 C 72.882812 165.476562 73.121094 166.25 73.121094 167 L 73.140625 167 L 73.140625 281.488281 C 73.140625 284.964844 71.703125 288.121094 69.429688 290.394531 C 67.132812 292.691406 63.976562 294.109375 60.5 294.109375 L 27.925781 294.109375 C 24.449219 294.109375 21.273438 292.691406 19 290.394531 C 16.703125 288.121094 15.285156 284.964844 15.285156 281.488281 L 15.285156 209.386719 C 15.285156 208.289062 15.820312 207.304688 16.636719 206.679688 Z M 66.402344 174.148438 L 22.023438 210.953125 L 22.023438 281.488281 C 22.023438 283.101562 22.667969 284.582031 23.742188 285.652344 C 24.8125 286.726562 26.292969 287.390625 27.925781 287.390625 L 60.5 287.390625 C 62.132812 287.390625 63.589844 286.726562 64.664062 285.652344 C 65.738281 284.582031 66.402344 283.101562 66.402344 281.488281 Z M 141.148438 142.324219 L 142.09375 281.488281 C 142.09375 284.964844 140.675781 288.121094 138.402344 290.394531 C 136.105469 292.691406 132.949219 294.109375 129.472656 294.109375 L 96.875 294.109375 C 93.398438 294.109375 90.246094 292.691406 87.96875 290.394531 C 85.675781 288.121094 84.257812 284.964844 84.257812 281.488281 L 84.257812 168.074219 C 84.257812 166.679688 85.09375 165.476562 86.296875 164.964844 L 136.253906 139.191406 C 137.90625 138.332031 139.925781 138.976562 140.78125 140.628906 C 141.0625 141.164062 141.167969 141.765625 141.148438 142.324219 Z M 135.394531 281.488281 L 134.472656 147.644531 L 90.972656 170.113281 L 90.972656 281.488281 C 90.972656 283.101562 91.640625 284.582031 92.710938 285.652344 C 93.785156 286.726562 95.265625 287.390625 96.875 287.390625 L 129.472656 287.390625 C 131.082031 287.390625 132.5625 286.726562 133.636719 285.652344 C 134.710938 284.582031 135.375 283.101562 135.375 281.488281 Z M 209.625 117.988281 L 211.0625 281.488281 C 211.0625 284.964844 209.648438 288.121094 207.371094 290.394531 C 205.078125 292.691406 201.921875 294.109375 198.445312 294.109375 L 165.847656 294.109375 C 162.371094 294.109375 159.214844 292.691406 156.921875 290.394531 C 154.644531 288.121094 153.230469 284.964844 153.230469 281.488281 L 153.230469 129.167969 C 153.230469 127.496094 154.472656 126.078125 156.105469 125.84375 L 205.546875 114.574219 C 207.351562 114.1875 209.132812 115.304688 209.539062 117.128906 C 209.605469 117.40625 209.625 117.6875 209.625 117.988281 Z M 204.347656 281.488281 L 202.953125 122.042969 L 159.945312 131.851562 L 159.945312 281.488281 C 159.945312 283.101562 160.613281 284.582031 161.683594 285.652344 C 162.757812 286.726562 164.238281 287.390625 165.847656 287.390625 L 198.445312 287.390625 C 200.054688 287.390625 201.535156 286.726562 202.609375 285.652344 C 203.679688 284.582031 204.347656 283.101562 204.347656 281.488281 Z M 204.347656 281.488281 " fill-opacity="1" fill-rule="nonzero"/></g></g></g></g></svg>